<mxfile host="app.diagrams.net" modified="2023-08-02T15:17:19.480Z" agent="Mozilla/5.0 (Windows NT 10.0; Win64; x64) AppleWebKit/537.36 (KHTML, like Gecko) Chrome/115.0.0.0 Safari/537.36" etag="Nagvze3iyyjs3BnGWMp6" version="21.6.6" type="github">
  <diagram name="第 1 页" id="K0m6eNudbS8uEpsSqH8s">
    <mxGraphModel dx="2261" dy="1965" grid="1" gridSize="10" guides="1" tooltips="1" connect="1" arrows="1" fold="1" page="1" pageScale="1" pageWidth="827" pageHeight="1169" math="0" shadow="0">
      <root>
        <mxCell id="0" />
        <mxCell id="1" parent="0" />
        <mxCell id="7Nk23ZDvDjW6nSxyGegu-87" value="" style="rounded=1;whiteSpace=wrap;html=1;container=1;collapsible=0;absoluteArcSize=1;arcSize=20;childLayout=stackLayout;horizontal=1;horizontalStack=0;resizeParent=1;resizeParentMax=0;resizeLast=0;" vertex="1" parent="1">
          <mxGeometry x="-310" y="695" width="260" height="195" as="geometry" />
        </mxCell>
        <mxCell id="7Nk23ZDvDjW6nSxyGegu-1" value="VPC" style="points=[[0,0],[0.25,0],[0.5,0],[0.75,0],[1,0],[1,0.25],[1,0.5],[1,0.75],[1,1],[0.75,1],[0.5,1],[0.25,1],[0,1],[0,0.75],[0,0.5],[0,0.25]];outlineConnect=0;gradientColor=none;html=1;whiteSpace=wrap;fontSize=12;fontStyle=0;container=1;pointerEvents=0;collapsible=0;recursiveResize=0;shape=mxgraph.aws4.group;grIcon=mxgraph.aws4.group_vpc;strokeColor=#248814;fillColor=none;verticalAlign=top;align=left;spacingLeft=30;fontColor=#AAB7B8;dashed=0;" vertex="1" parent="1">
          <mxGeometry x="70" y="140" width="780" height="810" as="geometry" />
        </mxCell>
        <mxCell id="7Nk23ZDvDjW6nSxyGegu-31" value="Public subnet" style="points=[[0,0],[0.25,0],[0.5,0],[0.75,0],[1,0],[1,0.25],[1,0.5],[1,0.75],[1,1],[0.75,1],[0.5,1],[0.25,1],[0,1],[0,0.75],[0,0.5],[0,0.25]];outlineConnect=0;gradientColor=none;html=1;whiteSpace=wrap;fontSize=12;fontStyle=0;container=1;pointerEvents=0;collapsible=0;recursiveResize=0;shape=mxgraph.aws4.group;grIcon=mxgraph.aws4.group_security_group;grStroke=0;strokeColor=#248814;fillColor=#E9F3E6;verticalAlign=top;align=left;spacingLeft=30;fontColor=#248814;dashed=0;" vertex="1" parent="7Nk23ZDvDjW6nSxyGegu-1">
          <mxGeometry x="385" y="20" width="130" height="130" as="geometry" />
        </mxCell>
        <mxCell id="7Nk23ZDvDjW6nSxyGegu-6" value="Public subnet" style="points=[[0,0],[0.25,0],[0.5,0],[0.75,0],[1,0],[1,0.25],[1,0.5],[1,0.75],[1,1],[0.75,1],[0.5,1],[0.25,1],[0,1],[0,0.75],[0,0.5],[0,0.25]];outlineConnect=0;gradientColor=none;html=1;whiteSpace=wrap;fontSize=12;fontStyle=0;container=1;pointerEvents=0;collapsible=0;recursiveResize=0;shape=mxgraph.aws4.group;grIcon=mxgraph.aws4.group_security_group;grStroke=0;strokeColor=#248814;fillColor=#E9F3E6;verticalAlign=top;align=left;spacingLeft=30;fontColor=#248814;dashed=0;" vertex="1" parent="7Nk23ZDvDjW6nSxyGegu-1">
          <mxGeometry x="355" y="50" width="130" height="130" as="geometry" />
        </mxCell>
        <mxCell id="7Nk23ZDvDjW6nSxyGegu-5" value="Public subnet" style="points=[[0,0],[0.25,0],[0.5,0],[0.75,0],[1,0],[1,0.25],[1,0.5],[1,0.75],[1,1],[0.75,1],[0.5,1],[0.25,1],[0,1],[0,0.75],[0,0.5],[0,0.25]];outlineConnect=0;gradientColor=none;html=1;whiteSpace=wrap;fontSize=12;fontStyle=0;container=1;pointerEvents=0;collapsible=0;recursiveResize=0;shape=mxgraph.aws4.group;grIcon=mxgraph.aws4.group_security_group;grStroke=0;strokeColor=#248814;fillColor=#E9F3E6;verticalAlign=top;align=left;spacingLeft=30;fontColor=#248814;dashed=0;" vertex="1" parent="7Nk23ZDvDjW6nSxyGegu-1">
          <mxGeometry x="325" y="80" width="130" height="130" as="geometry" />
        </mxCell>
        <mxCell id="7Nk23ZDvDjW6nSxyGegu-29" value="" style="sketch=0;points=[[0,0,0],[0.25,0,0],[0.5,0,0],[0.75,0,0],[1,0,0],[0,1,0],[0.25,1,0],[0.5,1,0],[0.75,1,0],[1,1,0],[0,0.25,0],[0,0.5,0],[0,0.75,0],[1,0.25,0],[1,0.5,0],[1,0.75,0]];outlineConnect=0;fontColor=#232F3E;gradientColor=#F78E04;gradientDirection=north;fillColor=#D05C17;strokeColor=#ffffff;dashed=0;verticalLabelPosition=bottom;verticalAlign=top;align=center;html=1;fontSize=12;fontStyle=0;aspect=fixed;shape=mxgraph.aws4.resourceIcon;resIcon=mxgraph.aws4.elastic_load_balancing;" vertex="1" parent="7Nk23ZDvDjW6nSxyGegu-5">
          <mxGeometry x="26" y="40" width="78" height="78" as="geometry" />
        </mxCell>
        <mxCell id="7Nk23ZDvDjW6nSxyGegu-34" style="edgeStyle=orthogonalEdgeStyle;rounded=0;orthogonalLoop=1;jettySize=auto;html=1;" edge="1" parent="7Nk23ZDvDjW6nSxyGegu-1" source="7Nk23ZDvDjW6nSxyGegu-14" target="7Nk23ZDvDjW6nSxyGegu-29">
          <mxGeometry relative="1" as="geometry" />
        </mxCell>
        <mxCell id="7Nk23ZDvDjW6nSxyGegu-35" style="edgeStyle=orthogonalEdgeStyle;rounded=0;orthogonalLoop=1;jettySize=auto;html=1;" edge="1" parent="7Nk23ZDvDjW6nSxyGegu-1" source="7Nk23ZDvDjW6nSxyGegu-15" target="7Nk23ZDvDjW6nSxyGegu-29">
          <mxGeometry relative="1" as="geometry" />
        </mxCell>
        <mxCell id="7Nk23ZDvDjW6nSxyGegu-45" style="edgeStyle=orthogonalEdgeStyle;rounded=0;orthogonalLoop=1;jettySize=auto;html=1;exitX=1.005;exitY=0.6;exitDx=0;exitDy=0;exitPerimeter=0;" edge="1" parent="7Nk23ZDvDjW6nSxyGegu-1" source="7Nk23ZDvDjW6nSxyGegu-38" target="7Nk23ZDvDjW6nSxyGegu-29">
          <mxGeometry relative="1" as="geometry" />
        </mxCell>
        <mxCell id="7Nk23ZDvDjW6nSxyGegu-17" value="ap-northeast-1" style="shape=mxgraph.ibm.box;prType=region;fontStyle=0;verticalAlign=top;align=left;spacingLeft=32;spacingTop=4;fillColor=none;rounded=0;whiteSpace=wrap;html=1;strokeColor=#919191;strokeWidth=2;dashed=0;container=1;spacing=-4;collapsible=0;expand=0;recursiveResize=0;" vertex="1" parent="7Nk23ZDvDjW6nSxyGegu-1">
          <mxGeometry x="-60" y="-130" width="1090" height="1070" as="geometry" />
        </mxCell>
        <mxCell id="7Nk23ZDvDjW6nSxyGegu-36" value="API Gateway" style="sketch=0;points=[[0,0,0],[0.25,0,0],[0.5,0,0],[0.75,0,0],[1,0,0],[0,1,0],[0.25,1,0],[0.5,1,0],[0.75,1,0],[1,1,0],[0,0.25,0],[0,0.5,0],[0,0.75,0],[1,0.25,0],[1,0.5,0],[1,0.75,0]];outlineConnect=0;fontColor=#232F3E;gradientColor=#FF4F8B;gradientDirection=north;fillColor=#BC1356;strokeColor=#ffffff;dashed=0;verticalLabelPosition=bottom;verticalAlign=top;align=center;html=1;fontSize=12;fontStyle=0;aspect=fixed;shape=mxgraph.aws4.resourceIcon;resIcon=mxgraph.aws4.api_gateway;" vertex="1" parent="7Nk23ZDvDjW6nSxyGegu-17">
          <mxGeometry x="410" y="20" width="78" height="78" as="geometry" />
        </mxCell>
        <mxCell id="7Nk23ZDvDjW6nSxyGegu-37" value="" style="html=1;shadow=0;dashed=0;shape=mxgraph.bootstrap.rrect;rSize=5;strokeColor=#DFDFDF;html=1;whiteSpace=wrap;fillColor=#FFFFFF;fontColor=#000000;" vertex="1" parent="7Nk23ZDvDjW6nSxyGegu-17">
          <mxGeometry x="500" y="20" width="200" height="90" as="geometry" />
        </mxCell>
        <mxCell id="7Nk23ZDvDjW6nSxyGegu-38" value="/index.html" style="strokeColor=inherit;fillColor=inherit;gradientColor=inherit;fontColor=inherit;html=1;shadow=0;dashed=0;shape=mxgraph.bootstrap.topButton;rSize=5;perimeter=none;whiteSpace=wrap;resizeWidth=1;align=left;spacing=10;" vertex="1" parent="7Nk23ZDvDjW6nSxyGegu-37">
          <mxGeometry width="200" height="30" relative="1" as="geometry" />
        </mxCell>
        <mxCell id="7Nk23ZDvDjW6nSxyGegu-39" value="/post/somedata" style="strokeColor=inherit;fillColor=inherit;gradientColor=inherit;fontColor=inherit;html=1;shadow=0;dashed=0;perimeter=none;whiteSpace=wrap;resizeWidth=1;align=left;spacing=10;" vertex="1" parent="7Nk23ZDvDjW6nSxyGegu-37">
          <mxGeometry width="200" height="30" relative="1" as="geometry">
            <mxPoint y="30" as="offset" />
          </mxGeometry>
        </mxCell>
        <mxCell id="7Nk23ZDvDjW6nSxyGegu-40" value="/get/somedata" style="strokeColor=inherit;fillColor=inherit;gradientColor=inherit;fontColor=inherit;html=1;shadow=0;dashed=0;shape=mxgraph.bootstrap.bottomButton;rSize=5;perimeter=none;whiteSpace=wrap;resizeWidth=1;resizeHeight=0;align=left;spacing=10;" vertex="1" parent="7Nk23ZDvDjW6nSxyGegu-37">
          <mxGeometry y="1" width="200" height="30" relative="1" as="geometry">
            <mxPoint y="-30" as="offset" />
          </mxGeometry>
        </mxCell>
        <mxCell id="7Nk23ZDvDjW6nSxyGegu-43" style="edgeStyle=orthogonalEdgeStyle;rounded=0;orthogonalLoop=1;jettySize=auto;html=1;exitX=1.005;exitY=0.567;exitDx=0;exitDy=0;exitPerimeter=0;" edge="1" parent="7Nk23ZDvDjW6nSxyGegu-17" source="7Nk23ZDvDjW6nSxyGegu-40">
          <mxGeometry relative="1" as="geometry">
            <mxPoint x="970" y="240" as="targetPoint" />
          </mxGeometry>
        </mxCell>
        <mxCell id="7Nk23ZDvDjW6nSxyGegu-53" value="Private subnet" style="points=[[0,0],[0.25,0],[0.5,0],[0.75,0],[1,0],[1,0.25],[1,0.5],[1,0.75],[1,1],[0.75,1],[0.5,1],[0.25,1],[0,1],[0,0.75],[0,0.5],[0,0.25]];outlineConnect=0;gradientColor=none;html=1;whiteSpace=wrap;fontSize=12;fontStyle=0;container=1;pointerEvents=0;collapsible=0;recursiveResize=0;shape=mxgraph.aws4.group;grIcon=mxgraph.aws4.group_security_group;grStroke=0;strokeColor=#147EBA;fillColor=#E6F2F8;verticalAlign=top;align=left;spacingLeft=30;fontColor=#147EBA;dashed=0;" vertex="1" parent="7Nk23ZDvDjW6nSxyGegu-17">
          <mxGeometry x="130" y="670" width="130" height="130" as="geometry" />
        </mxCell>
        <mxCell id="7Nk23ZDvDjW6nSxyGegu-54" value="Bastion" style="sketch=0;points=[[0,0,0],[0.25,0,0],[0.5,0,0],[0.75,0,0],[1,0,0],[0,1,0],[0.25,1,0],[0.5,1,0],[0.75,1,0],[1,1,0],[0,0.25,0],[0,0.5,0],[0,0.75,0],[1,0.25,0],[1,0.5,0],[1,0.75,0]];outlineConnect=0;fontColor=#232F3E;gradientColor=#F78E04;gradientDirection=north;fillColor=#D05C17;strokeColor=#ffffff;dashed=0;verticalLabelPosition=middle;verticalAlign=middle;align=right;html=1;fontSize=12;fontStyle=0;aspect=fixed;shape=mxgraph.aws4.resourceIcon;resIcon=mxgraph.aws4.ec2;labelPosition=left;" vertex="1" parent="7Nk23ZDvDjW6nSxyGegu-53">
          <mxGeometry x="26" y="34" width="78" height="78" as="geometry" />
        </mxCell>
        <mxCell id="7Nk23ZDvDjW6nSxyGegu-58" value="" style="edgeStyle=orthogonalEdgeStyle;rounded=0;orthogonalLoop=1;jettySize=auto;html=1;" edge="1" parent="7Nk23ZDvDjW6nSxyGegu-17" source="7Nk23ZDvDjW6nSxyGegu-56">
          <mxGeometry relative="1" as="geometry">
            <mxPoint x="204.5" y="256" as="targetPoint" />
          </mxGeometry>
        </mxCell>
        <mxCell id="7Nk23ZDvDjW6nSxyGegu-56" value="internet gateway" style="outlineConnect=0;dashed=0;verticalLabelPosition=bottom;verticalAlign=top;align=center;html=1;shape=mxgraph.aws3.internet_gateway;fillColor=#F58534;gradientColor=none;" vertex="1" parent="7Nk23ZDvDjW6nSxyGegu-17">
          <mxGeometry x="170" y="98" width="69" height="72" as="geometry" />
        </mxCell>
        <mxCell id="7Nk23ZDvDjW6nSxyGegu-70" value="Public subnet" style="points=[[0,0],[0.25,0],[0.5,0],[0.75,0],[1,0],[1,0.25],[1,0.5],[1,0.75],[1,1],[0.75,1],[0.5,1],[0.25,1],[0,1],[0,0.75],[0,0.5],[0,0.25]];outlineConnect=0;gradientColor=none;html=1;whiteSpace=wrap;fontSize=12;fontStyle=0;container=1;pointerEvents=0;collapsible=0;recursiveResize=0;shape=mxgraph.aws4.group;grIcon=mxgraph.aws4.group_security_group;grStroke=0;strokeColor=#248814;fillColor=#E9F3E6;verticalAlign=top;align=left;spacingLeft=30;fontColor=#248814;dashed=0;" vertex="1" parent="7Nk23ZDvDjW6nSxyGegu-17">
          <mxGeometry x="139.5" y="260" width="130" height="130" as="geometry" />
        </mxCell>
        <mxCell id="7Nk23ZDvDjW6nSxyGegu-55" value="NAT Gateway" style="outlineConnect=0;dashed=0;verticalLabelPosition=bottom;verticalAlign=top;align=center;html=1;shape=mxgraph.aws3.vpc_nat_gateway;fillColor=#F58534;gradientColor=none;" vertex="1" parent="7Nk23ZDvDjW6nSxyGegu-70">
          <mxGeometry x="30" y="29" width="69" height="72" as="geometry" />
        </mxCell>
        <mxCell id="7Nk23ZDvDjW6nSxyGegu-7" value="Private subnet" style="points=[[0,0],[0.25,0],[0.5,0],[0.75,0],[1,0],[1,0.25],[1,0.5],[1,0.75],[1,1],[0.75,1],[0.5,1],[0.25,1],[0,1],[0,0.75],[0,0.5],[0,0.25]];outlineConnect=0;gradientColor=none;html=1;whiteSpace=wrap;fontSize=12;fontStyle=0;container=1;pointerEvents=0;collapsible=0;recursiveResize=0;shape=mxgraph.aws4.group;grIcon=mxgraph.aws4.group_security_group;grStroke=0;strokeColor=#147EBA;fillColor=#E6F2F8;verticalAlign=top;align=left;spacingLeft=30;fontColor=#147EBA;dashed=0;" vertex="1" parent="7Nk23ZDvDjW6nSxyGegu-17">
          <mxGeometry x="650" y="410" width="130" height="130" as="geometry" />
        </mxCell>
        <mxCell id="7Nk23ZDvDjW6nSxyGegu-15" value="Nginx" style="sketch=0;points=[[0,0,0],[0.25,0,0],[0.5,0,0],[0.75,0,0],[1,0,0],[0,1,0],[0.25,1,0],[0.5,1,0],[0.75,1,0],[1,1,0],[0,0.25,0],[0,0.5,0],[0,0.75,0],[1,0.25,0],[1,0.5,0],[1,0.75,0]];outlineConnect=0;fontColor=#232F3E;gradientColor=#F78E04;gradientDirection=north;fillColor=#D05C17;strokeColor=#ffffff;dashed=0;verticalLabelPosition=middle;verticalAlign=middle;align=left;html=1;fontSize=12;fontStyle=0;aspect=fixed;shape=mxgraph.aws4.resourceIcon;resIcon=mxgraph.aws4.ec2;labelPosition=right;" vertex="1" parent="7Nk23ZDvDjW6nSxyGegu-7">
          <mxGeometry x="26" y="34" width="78" height="78" as="geometry" />
        </mxCell>
        <mxCell id="7Nk23ZDvDjW6nSxyGegu-12" value="Private subnet" style="points=[[0,0],[0.25,0],[0.5,0],[0.75,0],[1,0],[1,0.25],[1,0.5],[1,0.75],[1,1],[0.75,1],[0.5,1],[0.25,1],[0,1],[0,0.75],[0,0.5],[0,0.25]];outlineConnect=0;gradientColor=none;html=1;whiteSpace=wrap;fontSize=12;fontStyle=0;container=1;pointerEvents=0;collapsible=0;recursiveResize=0;shape=mxgraph.aws4.group;grIcon=mxgraph.aws4.group_security_group;grStroke=0;strokeColor=#147EBA;fillColor=#E6F2F8;verticalAlign=top;align=left;spacingLeft=30;fontColor=#147EBA;dashed=0;" vertex="1" parent="7Nk23ZDvDjW6nSxyGegu-17">
          <mxGeometry x="650" y="670" width="130" height="130" as="geometry" />
        </mxCell>
        <mxCell id="7Nk23ZDvDjW6nSxyGegu-10" value="RDS MySQL Slave" style="outlineConnect=0;dashed=0;verticalLabelPosition=bottom;verticalAlign=top;align=center;html=1;shape=mxgraph.aws3.rds_db_instance_standby_multi_az;fillColor=#2E73B8;gradientColor=none;" vertex="1" parent="7Nk23ZDvDjW6nSxyGegu-12">
          <mxGeometry x="40.25" y="40" width="49.5" height="66" as="geometry" />
        </mxCell>
        <mxCell id="7Nk23ZDvDjW6nSxyGegu-4" value="Private subnet" style="points=[[0,0],[0.25,0],[0.5,0],[0.75,0],[1,0],[1,0.25],[1,0.5],[1,0.75],[1,1],[0.75,1],[0.5,1],[0.25,1],[0,1],[0,0.75],[0,0.5],[0,0.25]];outlineConnect=0;gradientColor=none;html=1;whiteSpace=wrap;fontSize=12;fontStyle=0;container=1;pointerEvents=0;collapsible=0;recursiveResize=0;shape=mxgraph.aws4.group;grIcon=mxgraph.aws4.group_security_group;grStroke=0;strokeColor=#147EBA;fillColor=#E6F2F8;verticalAlign=top;align=left;spacingLeft=30;fontColor=#147EBA;dashed=0;" vertex="1" parent="7Nk23ZDvDjW6nSxyGegu-17">
          <mxGeometry x="130" y="410" width="130" height="130" as="geometry" />
        </mxCell>
        <mxCell id="7Nk23ZDvDjW6nSxyGegu-14" value="Nginx" style="sketch=0;points=[[0,0,0],[0.25,0,0],[0.5,0,0],[0.75,0,0],[1,0,0],[0,1,0],[0.25,1,0],[0.5,1,0],[0.75,1,0],[1,1,0],[0,0.25,0],[0,0.5,0],[0,0.75,0],[1,0.25,0],[1,0.5,0],[1,0.75,0]];outlineConnect=0;fontColor=#232F3E;gradientColor=#F78E04;gradientDirection=north;fillColor=#D05C17;strokeColor=#ffffff;dashed=0;verticalLabelPosition=middle;verticalAlign=middle;align=right;html=1;fontSize=12;fontStyle=0;aspect=fixed;shape=mxgraph.aws4.resourceIcon;resIcon=mxgraph.aws4.ec2;labelPosition=left;" vertex="1" parent="7Nk23ZDvDjW6nSxyGegu-4">
          <mxGeometry x="26" y="34" width="78" height="78" as="geometry" />
        </mxCell>
        <mxCell id="7Nk23ZDvDjW6nSxyGegu-8" value="Private subnet" style="points=[[0,0],[0.25,0],[0.5,0],[0.75,0],[1,0],[1,0.25],[1,0.5],[1,0.75],[1,1],[0.75,1],[0.5,1],[0.25,1],[0,1],[0,0.75],[0,0.5],[0,0.25]];outlineConnect=0;gradientColor=none;html=1;whiteSpace=wrap;fontSize=12;fontStyle=0;container=1;pointerEvents=0;collapsible=0;recursiveResize=0;shape=mxgraph.aws4.group;grIcon=mxgraph.aws4.group_security_group;grStroke=0;strokeColor=#147EBA;fillColor=#E6F2F8;verticalAlign=top;align=left;spacingLeft=30;fontColor=#147EBA;dashed=0;" vertex="1" parent="7Nk23ZDvDjW6nSxyGegu-17">
          <mxGeometry x="384" y="670" width="130" height="130" as="geometry" />
        </mxCell>
        <mxCell id="7Nk23ZDvDjW6nSxyGegu-11" value="RDS MySQL Primary" style="outlineConnect=0;dashed=0;verticalLabelPosition=bottom;verticalAlign=top;align=center;html=1;shape=mxgraph.aws3.rds_db_instance;fillColor=#2E73B8;gradientColor=none;" vertex="1" parent="7Nk23ZDvDjW6nSxyGegu-8">
          <mxGeometry x="40.25" y="40" width="49.5" height="66" as="geometry" />
        </mxCell>
        <mxCell id="7Nk23ZDvDjW6nSxyGegu-13" style="edgeStyle=orthogonalEdgeStyle;rounded=0;orthogonalLoop=1;jettySize=auto;html=1;shape=link;dashed=1;dashPattern=12 12;" edge="1" parent="7Nk23ZDvDjW6nSxyGegu-17" source="7Nk23ZDvDjW6nSxyGegu-11" target="7Nk23ZDvDjW6nSxyGegu-10">
          <mxGeometry relative="1" as="geometry" />
        </mxCell>
        <mxCell id="7Nk23ZDvDjW6nSxyGegu-32" style="rounded=0;orthogonalLoop=1;jettySize=auto;html=1;entryX=0.5;entryY=0.02;entryDx=0;entryDy=0;entryPerimeter=0;" edge="1" parent="7Nk23ZDvDjW6nSxyGegu-17" source="7Nk23ZDvDjW6nSxyGegu-14" target="7Nk23ZDvDjW6nSxyGegu-11">
          <mxGeometry relative="1" as="geometry" />
        </mxCell>
        <mxCell id="7Nk23ZDvDjW6nSxyGegu-33" style="rounded=0;orthogonalLoop=1;jettySize=auto;html=1;entryX=0.5;entryY=0.02;entryDx=0;entryDy=0;entryPerimeter=0;" edge="1" parent="7Nk23ZDvDjW6nSxyGegu-17" source="7Nk23ZDvDjW6nSxyGegu-15" target="7Nk23ZDvDjW6nSxyGegu-11">
          <mxGeometry relative="1" as="geometry" />
        </mxCell>
        <mxCell id="7Nk23ZDvDjW6nSxyGegu-75" style="edgeStyle=orthogonalEdgeStyle;rounded=0;orthogonalLoop=1;jettySize=auto;html=1;entryX=0.5;entryY=1;entryDx=0;entryDy=0;entryPerimeter=0;" edge="1" parent="7Nk23ZDvDjW6nSxyGegu-17" source="7Nk23ZDvDjW6nSxyGegu-53" target="7Nk23ZDvDjW6nSxyGegu-14">
          <mxGeometry relative="1" as="geometry" />
        </mxCell>
        <mxCell id="7Nk23ZDvDjW6nSxyGegu-76" style="rounded=0;orthogonalLoop=1;jettySize=auto;html=1;" edge="1" parent="7Nk23ZDvDjW6nSxyGegu-17" source="7Nk23ZDvDjW6nSxyGegu-54" target="7Nk23ZDvDjW6nSxyGegu-15">
          <mxGeometry relative="1" as="geometry" />
        </mxCell>
        <mxCell id="7Nk23ZDvDjW6nSxyGegu-84" style="edgeStyle=orthogonalEdgeStyle;rounded=0;orthogonalLoop=1;jettySize=auto;html=1;entryX=0.115;entryY=0.28;entryDx=0;entryDy=0;entryPerimeter=0;" edge="1" parent="7Nk23ZDvDjW6nSxyGegu-17" source="7Nk23ZDvDjW6nSxyGegu-77" target="7Nk23ZDvDjW6nSxyGegu-83">
          <mxGeometry relative="1" as="geometry" />
        </mxCell>
        <mxCell id="7Nk23ZDvDjW6nSxyGegu-77" value="" style="outlineConnect=0;dashed=0;verticalLabelPosition=bottom;verticalAlign=top;align=center;html=1;shape=mxgraph.aws3.vpn_connection;fillColor=#F58534;gradientColor=none;" vertex="1" parent="7Nk23ZDvDjW6nSxyGegu-17">
          <mxGeometry x="30" y="810" width="58.5" height="48" as="geometry" />
        </mxCell>
        <mxCell id="7Nk23ZDvDjW6nSxyGegu-78" value="S3" style="sketch=0;points=[[0,0,0],[0.25,0,0],[0.5,0,0],[0.75,0,0],[1,0,0],[0,1,0],[0.25,1,0],[0.5,1,0],[0.75,1,0],[1,1,0],[0,0.25,0],[0,0.5,0],[0,0.75,0],[1,0.25,0],[1,0.5,0],[1,0.75,0]];outlineConnect=0;fontColor=#232F3E;gradientColor=#60A337;gradientDirection=north;fillColor=#277116;strokeColor=#ffffff;dashed=0;verticalLabelPosition=bottom;verticalAlign=top;align=center;html=1;fontSize=12;fontStyle=0;aspect=fixed;shape=mxgraph.aws4.resourceIcon;resIcon=mxgraph.aws4.s3;" vertex="1" parent="7Nk23ZDvDjW6nSxyGegu-17">
          <mxGeometry x="930" y="240" width="78" height="78" as="geometry" />
        </mxCell>
        <mxCell id="7Nk23ZDvDjW6nSxyGegu-79" value="DynamoDB" style="outlineConnect=0;dashed=0;verticalLabelPosition=bottom;verticalAlign=top;align=center;html=1;shape=mxgraph.aws3.dynamo_db;fillColor=#2E73B8;gradientColor=none;" vertex="1" parent="7Nk23ZDvDjW6nSxyGegu-17">
          <mxGeometry x="933" y="410" width="72" height="81" as="geometry" />
        </mxCell>
        <mxCell id="7Nk23ZDvDjW6nSxyGegu-85" value="" style="edgeStyle=orthogonalEdgeStyle;rounded=0;orthogonalLoop=1;jettySize=auto;html=1;" edge="1" parent="7Nk23ZDvDjW6nSxyGegu-17" source="7Nk23ZDvDjW6nSxyGegu-83" target="7Nk23ZDvDjW6nSxyGegu-54">
          <mxGeometry relative="1" as="geometry" />
        </mxCell>
        <mxCell id="7Nk23ZDvDjW6nSxyGegu-83" value="" style="sketch=0;aspect=fixed;pointerEvents=1;shadow=0;dashed=0;html=1;strokeColor=none;labelPosition=center;verticalLabelPosition=bottom;verticalAlign=top;align=center;fillColor=#00188D;shape=mxgraph.mscae.enterprise.key_permissions" vertex="1" parent="7Nk23ZDvDjW6nSxyGegu-17">
          <mxGeometry x="182" y="820" width="26" height="50" as="geometry" />
        </mxCell>
        <mxCell id="7Nk23ZDvDjW6nSxyGegu-80" style="edgeStyle=orthogonalEdgeStyle;rounded=0;orthogonalLoop=1;jettySize=auto;html=1;entryX=1;entryY=0.5;entryDx=0;entryDy=0;entryPerimeter=0;" edge="1" parent="1" source="7Nk23ZDvDjW6nSxyGegu-41" target="7Nk23ZDvDjW6nSxyGegu-79">
          <mxGeometry relative="1" as="geometry" />
        </mxCell>
        <mxCell id="7Nk23ZDvDjW6nSxyGegu-41" value="Lambda 1" style="outlineConnect=0;dashed=0;verticalLabelPosition=bottom;verticalAlign=top;align=center;html=1;shape=mxgraph.aws3.lambda_function;fillColor=#F58534;gradientColor=none;" vertex="1" parent="1">
          <mxGeometry x="1010" y="130" width="69" height="72" as="geometry" />
        </mxCell>
        <mxCell id="7Nk23ZDvDjW6nSxyGegu-42" style="edgeStyle=orthogonalEdgeStyle;rounded=0;orthogonalLoop=1;jettySize=auto;html=1;" edge="1" parent="1" target="7Nk23ZDvDjW6nSxyGegu-41">
          <mxGeometry relative="1" as="geometry">
            <mxPoint x="720" y="90" as="sourcePoint" />
          </mxGeometry>
        </mxCell>
        <mxCell id="7Nk23ZDvDjW6nSxyGegu-61" style="edgeStyle=orthogonalEdgeStyle;rounded=0;orthogonalLoop=1;jettySize=auto;html=1;entryX=0.5;entryY=0;entryDx=0;entryDy=0;entryPerimeter=0;" edge="1" parent="1" source="7Nk23ZDvDjW6nSxyGegu-46" target="7Nk23ZDvDjW6nSxyGegu-60">
          <mxGeometry relative="1" as="geometry" />
        </mxCell>
        <mxCell id="7Nk23ZDvDjW6nSxyGegu-62" style="edgeStyle=orthogonalEdgeStyle;rounded=0;orthogonalLoop=1;jettySize=auto;html=1;" edge="1" parent="1" source="7Nk23ZDvDjW6nSxyGegu-46" target="7Nk23ZDvDjW6nSxyGegu-59">
          <mxGeometry relative="1" as="geometry" />
        </mxCell>
        <mxCell id="7Nk23ZDvDjW6nSxyGegu-46" value="Amazon Cloudfront" style="sketch=0;outlineConnect=0;fontColor=#232F3E;gradientColor=none;strokeColor=#ffffff;fillColor=#232F3E;dashed=0;verticalLabelPosition=middle;verticalAlign=bottom;align=center;html=1;whiteSpace=wrap;fontSize=10;fontStyle=1;spacing=3;shape=mxgraph.aws4.productIcon;prIcon=mxgraph.aws4.cloudfront;" vertex="1" parent="1">
          <mxGeometry x="430" y="-240" width="80" height="110" as="geometry" />
        </mxCell>
        <mxCell id="7Nk23ZDvDjW6nSxyGegu-63" style="edgeStyle=orthogonalEdgeStyle;rounded=0;orthogonalLoop=1;jettySize=auto;html=1;" edge="1" parent="1" source="7Nk23ZDvDjW6nSxyGegu-60" target="7Nk23ZDvDjW6nSxyGegu-36">
          <mxGeometry relative="1" as="geometry" />
        </mxCell>
        <mxCell id="7Nk23ZDvDjW6nSxyGegu-60" value="AWS WAF" style="sketch=0;points=[[0,0,0],[0.25,0,0],[0.5,0,0],[0.75,0,0],[1,0,0],[0,1,0],[0.25,1,0],[0.5,1,0],[0.75,1,0],[1,1,0],[0,0.25,0],[0,0.5,0],[0,0.75,0],[1,0.25,0],[1,0.5,0],[1,0.75,0]];outlineConnect=0;fontColor=#232F3E;gradientColor=#F54749;gradientDirection=north;fillColor=#C7131F;strokeColor=#ffffff;dashed=0;verticalLabelPosition=bottom;verticalAlign=top;align=center;html=1;fontSize=12;fontStyle=0;aspect=fixed;shape=mxgraph.aws4.resourceIcon;resIcon=mxgraph.aws4.waf;" vertex="1" parent="1">
          <mxGeometry x="250" y="-120" width="78" height="78" as="geometry" />
        </mxCell>
        <mxCell id="7Nk23ZDvDjW6nSxyGegu-64" style="edgeStyle=orthogonalEdgeStyle;rounded=0;orthogonalLoop=1;jettySize=auto;html=1;" edge="1" parent="1" source="7Nk23ZDvDjW6nSxyGegu-59" target="7Nk23ZDvDjW6nSxyGegu-36">
          <mxGeometry relative="1" as="geometry" />
        </mxCell>
        <mxCell id="7Nk23ZDvDjW6nSxyGegu-59" value="AWS Shield" style="sketch=0;points=[[0,0,0],[0.25,0,0],[0.5,0,0],[0.75,0,0],[1,0,0],[0,1,0],[0.25,1,0],[0.5,1,0],[0.75,1,0],[1,1,0],[0,0.25,0],[0,0.5,0],[0,0.75,0],[1,0.25,0],[1,0.5,0],[1,0.75,0]];outlineConnect=0;fontColor=#232F3E;gradientColor=#F54749;gradientDirection=north;fillColor=#C7131F;strokeColor=#ffffff;dashed=0;verticalLabelPosition=bottom;verticalAlign=top;align=center;html=1;fontSize=12;fontStyle=0;aspect=fixed;shape=mxgraph.aws4.resourceIcon;resIcon=mxgraph.aws4.security_identity_and_compliance;" vertex="1" parent="1">
          <mxGeometry x="600" y="-120" width="78" height="78" as="geometry" />
        </mxCell>
        <mxCell id="7Nk23ZDvDjW6nSxyGegu-65" value="Amazon Route 53" style="sketch=0;outlineConnect=0;fontColor=#232F3E;gradientColor=none;strokeColor=#ffffff;fillColor=#232F3E;dashed=0;verticalLabelPosition=middle;verticalAlign=bottom;align=center;html=1;whiteSpace=wrap;fontSize=10;fontStyle=1;spacing=3;shape=mxgraph.aws4.productIcon;prIcon=mxgraph.aws4.route_53;" vertex="1" parent="1">
          <mxGeometry x="800" y="-240" width="80" height="110" as="geometry" />
        </mxCell>
        <mxCell id="7Nk23ZDvDjW6nSxyGegu-67" style="edgeStyle=orthogonalEdgeStyle;rounded=0;orthogonalLoop=1;jettySize=auto;html=1;dashed=1;dashPattern=1 2;strokeWidth=3;" edge="1" parent="1" source="7Nk23ZDvDjW6nSxyGegu-66" target="7Nk23ZDvDjW6nSxyGegu-65">
          <mxGeometry relative="1" as="geometry" />
        </mxCell>
        <mxCell id="7Nk23ZDvDjW6nSxyGegu-69" style="rounded=0;orthogonalLoop=1;jettySize=auto;html=1;" edge="1" parent="1" source="7Nk23ZDvDjW6nSxyGegu-66" target="7Nk23ZDvDjW6nSxyGegu-46">
          <mxGeometry relative="1" as="geometry" />
        </mxCell>
        <mxCell id="7Nk23ZDvDjW6nSxyGegu-66" value="" style="sketch=0;outlineConnect=0;fontColor=#232F3E;gradientColor=none;fillColor=#232F3D;strokeColor=none;dashed=0;verticalLabelPosition=bottom;verticalAlign=top;align=center;html=1;fontSize=12;fontStyle=0;aspect=fixed;pointerEvents=1;shape=mxgraph.aws4.users;" vertex="1" parent="1">
          <mxGeometry x="430" y="-400" width="78" height="78" as="geometry" />
        </mxCell>
        <mxCell id="7Nk23ZDvDjW6nSxyGegu-89" style="edgeStyle=orthogonalEdgeStyle;rounded=0;orthogonalLoop=1;jettySize=auto;html=1;entryX=0.2;entryY=0.55;entryDx=0;entryDy=0;entryPerimeter=0;" edge="1" parent="1" source="7Nk23ZDvDjW6nSxyGegu-82" target="7Nk23ZDvDjW6nSxyGegu-77">
          <mxGeometry relative="1" as="geometry" />
        </mxCell>
        <mxCell id="7Nk23ZDvDjW6nSxyGegu-82" value="User" style="html=1;whiteSpace=wrap;strokeColor=none;fillColor=#0079D6;labelPosition=center;verticalLabelPosition=middle;verticalAlign=top;align=center;fontSize=12;outlineConnect=0;spacingTop=-6;fontColor=#FFFFFF;sketch=0;shape=mxgraph.sitemap.user;" vertex="1" parent="1">
          <mxGeometry x="-280" y="790" width="120" height="70" as="geometry" />
        </mxCell>
      </root>
    </mxGraphModel>
  </diagram>
</mxfile>
